<?xml version="1.0" encoding="utf-8"?>
<!-- Generator: Adobe Illustrator 25.4.1, SVG Export Plug-In . SVG Version: 6.00 Build 0)  -->
<svg version="1.1" id="Layer_1" xmlns="http://www.w3.org/2000/svg" xmlns:xlink="http://www.w3.org/1999/xlink" x="0px" y="0px"
	 viewBox="0 0 197.3 56.5" style="enable-background:new 0 0 197.3 56.5;" xml:space="preserve">
<style type="text/css">
	.st0{fill:#F97C28;}
	.st1{fill:#FF5300;}
	.st2{fill:#FFFFFF;}
</style>
<g>
	<g>
		<path d="M66.4,40.9c-1.7-1-3-2.4-3.9-4.2c-0.9-1.8-1.4-3.9-1.4-6.2c0-2.3,0.5-4.4,1.4-6.2c0.9-1.8,2.2-3.2,3.9-4.2
			c1.7-1,3.6-1.5,5.7-1.5c1.6,0,3,0.3,4.3,0.8c1.3,0.5,2.4,1.3,3.4,2.4l0.5-2.7h6.3V42h-6.3l-0.5-2.8c-2,2.1-4.5,3.2-7.7,3.2
			C70,42.4,68.1,41.9,66.4,40.9z M69.9,34.6c1,1.1,2.3,1.6,3.9,1.6s2.9-0.5,4-1.6c1-1.1,1.5-2.5,1.5-4.2c0-1.7-0.5-3.1-1.5-4.2
			c-1-1.1-2.3-1.6-4-1.6s-2.9,0.5-3.9,1.6c-1,1.1-1.5,2.5-1.5,4.2C68.4,32.2,68.9,33.6,69.9,34.6z"/>
		<path d="M96.8,41c-1.9-1-3.4-2.4-4.4-4.2c-1-1.8-1.6-3.9-1.6-6.3c0-2.4,0.5-4.5,1.6-6.3c1.1-1.8,2.5-3.2,4.4-4.2
			c1.9-1,4.1-1.5,6.6-1.5c1.7,0,3.3,0.3,4.9,0.9c1.6,0.6,2.9,1.5,4.2,2.7l-4.1,4.4c-1.3-1.2-2.8-1.8-4.6-1.8c-1.7,0-3,0.5-4.1,1.6
			c-1.1,1.1-1.6,2.5-1.6,4.2c0,1.7,0.5,3.2,1.6,4.2c1,1.1,2.4,1.6,4.1,1.6c1.9,0,3.5-0.7,4.9-2l4.2,4.4c-2.6,2.6-5.7,3.8-9.2,3.8
			C101,42.5,98.7,42,96.8,41z"/>
		<path d="M120.7,40.3c-1.5-1.4-2.2-3.7-2.2-6.8v-8.7h-3.9v-5.8h3.9v-5.7l7.3-0.8v6.5h5.7v5.8h-5.7v8.7c0,0.9,0.2,1.6,0.7,2.1
			c0.5,0.5,1.1,0.7,1.9,0.7c0.9,0,1.8-0.2,2.7-0.7l1.7,5.5c-1.8,0.9-3.8,1.4-6.1,1.4C124.2,42.4,122.2,41.7,120.7,40.3z"/>
		<path d="M140.6,41c-1.9-1-3.4-2.4-4.4-4.2c-1-1.8-1.5-3.9-1.5-6.3c0-2.4,0.5-4.5,1.5-6.3c1-1.8,2.5-3.2,4.4-4.2
			c1.9-1,4.1-1.5,6.7-1.5c2.6,0,4.8,0.5,6.7,1.5c1.9,1,3.4,2.4,4.4,4.2c1,1.8,1.5,3.9,1.5,6.3c0,2.4-0.5,4.5-1.5,6.3
			c-1,1.8-2.5,3.2-4.4,4.2s-4.2,1.5-6.7,1.5C144.7,42.5,142.5,42,140.6,41z M143.4,34.6c1,1.1,2.3,1.6,3.9,1.6
			c1.6,0,2.9-0.5,3.9-1.6c1-1.1,1.5-2.5,1.5-4.2c0-1.7-0.5-3.1-1.5-4.2c-1-1.1-2.3-1.6-3.9-1.6c-1.6,0-2.9,0.5-3.9,1.6
			c-1,1.1-1.5,2.5-1.5,4.2C141.9,32.2,142.4,33.6,143.4,34.6z"/>
		<path d="M164.2,18.9h6.3l0.5,2.7c0.9-1,2-1.8,3.2-2.4c1.3-0.6,2.7-0.8,4.2-0.8c2.9,0,5.1,0.9,6.8,2.8c1.7,1.9,2.5,4.4,2.5,7.7v13
			h-7.3V29.4c0-1.5-0.4-2.7-1.1-3.5c-0.7-0.8-1.8-1.3-3.1-1.3c-1.4,0-2.6,0.5-3.5,1.4c-0.9,1-1.3,2.2-1.3,3.8V42h-7.3V18.9z"/>
	</g>
	<circle class="st0" cx="9.6" cy="28.8" r="4.1"/>
	<circle class="st0" cx="15.7" cy="29.1" r="0.9"/>
	<circle class="st0" cx="48" cy="10" r="4.1"/>
	<circle class="st0" cx="44.3" cy="14.9" r="0.9"/>
	<circle class="st0" cx="49.2" cy="46.5" r="4.1"/>
	<circle class="st0" cx="45.3" cy="41.7" r="0.9"/>
	<circle class="st1" cx="33.4" cy="28.8" r="15.3"/>
	<path class="st2" d="M43.9,33.3L35.7,19c-0.5-0.9-1.4-1.3-2.3-1.3s-1.8,0.4-2.3,1.3l-8.2,14.3c-0.3,0.6-0.4,1.2-0.3,1.8
		c0.3,1.6,2.2,2.4,3.6,1.7l5.8-2.9c0.5-0.2,0.9-0.3,1.4-0.3c0.5,0,1,0.1,1.4,0.3l5.8,2.9c0.6,0.3,1.2,0.3,1.7,0.2
		c0.9-0.2,1.7-0.9,1.9-1.9c0.1-0.3,0.1-0.6,0-0.9S44.1,33.6,43.9,33.3z M33.4,30.2c-1.6,0-2.8-1.3-2.8-2.8s1.3-2.8,2.8-2.8
		c1.6,0,2.8,1.3,2.8,2.8S35,30.2,33.4,30.2z"/>
</g>
</svg>
